<?xml version="1.0" encoding="utf-8"?>
<!-- Generator: Adobe Illustrator 21.0.0, SVG Export Plug-In . SVG Version: 6.00 Build 0)  -->
<!DOCTYPE svg PUBLIC "-//W3C//DTD SVG 1.1//EN" "http://www.w3.org/Graphics/SVG/1.1/DTD/svg11.dtd">
<svg version="1.1" id="Layer_1" xmlns="http://www.w3.org/2000/svg" xmlns:xlink="http://www.w3.org/1999/xlink" x="0px" y="0px"
	 viewBox="0 0 64 51" style="enable-background:new 0 0 64 51;" xml:space="preserve">
<style type="text/css">
	.st0{fill:#FF7A00;}
</style>
<g>
	<path class="st0" d="M59,10H5c-2.8,0-5-2.2-5-5v0c0-2.8,2.2-5,5-5l54,0c2.8,0,5,2.2,5,5v0C64,7.8,61.8,10,59,10z"/>
</g>
<g>
	<path class="st0" d="M59,31H5c-2.8,0-5-2.2-5-5v0c0-2.8,2.2-5,5-5h54c2.8,0,5,2.2,5,5v0C64,28.8,61.8,31,59,31z"/>
</g>
<g>
	<path class="st0" d="M59,51H5c-2.8,0-5-2.2-5-5v0c0-2.8,2.2-5,5-5h54c2.8,0,5,2.2,5,5v0C64,48.8,61.8,51,59,51z"/>
</g>
</svg>
