<?xml version="1.0" encoding="utf-8"?>
<!-- Generator: Adobe Illustrator 21.0.0, SVG Export Plug-In . SVG Version: 6.00 Build 0)  -->
<!DOCTYPE svg PUBLIC "-//W3C//DTD SVG 1.1//EN" "http://www.w3.org/Graphics/SVG/1.1/DTD/svg11.dtd">
<svg version="1.1" id="Layer_1" xmlns="http://www.w3.org/2000/svg" xmlns:xlink="http://www.w3.org/1999/xlink" x="0px" y="0px"
	 viewBox="0 0 52 81" style="enable-background:new 0 0 52 81;" xml:space="preserve">
<style type="text/css">
	.st0{fill:#231F20;}
	.st1{fill:#F58532;}
	.st2{fill:#5F6262;}
	.st3{fill:#FFFFFF;}
</style>
<g>
	<path d="M4.4,57.2c-0.3-0.5-0.8-0.7-1.4-0.7c-0.6,0-1.1,0.2-1.4,0.7c-0.3,0.4-0.4,0.9-0.4,1.7c0,0.9,0.1,1.3,0.4,1.7
		c0.3,0.5,0.8,0.7,1.4,0.7c0.6,0,1.1-0.2,1.4-0.7c0.3-0.4,0.4-0.9,0.4-1.7C4.8,58.1,4.7,57.6,4.4,57.2 M5.1,61.1
		c-0.5,0.7-1.2,1.1-2.1,1.1c-0.9,0-1.6-0.4-2.1-1.1c-0.4-0.6-0.5-1.2-0.5-2.2c0-1,0.1-1.6,0.5-2.2c0.5-0.7,1.2-1.1,2.1-1.1
		c0.9,0,1.6,0.4,2.1,1.1c0.4,0.6,0.5,1.2,0.5,2.2C5.6,59.9,5.5,60.5,5.1,61.1"/>
	<path d="M9.8,56.7c-0.2-0.1-0.6-0.2-0.9-0.2H7.5v1.9h1.4c0.3,0,0.7,0,0.9-0.2c0.2-0.1,0.4-0.4,0.4-0.8C10.2,57.1,10,56.8,9.8,56.7
		 M10.4,62.1c0,0-0.7-1.2-1.4-2.2c-0.1-0.2-0.2-0.4-0.4-0.5c-0.1-0.1-0.2-0.1-0.4-0.1H7.5v2.8H6.7v-6.3h2.2c0.4,0,0.9,0,1.3,0.3
		c0.5,0.3,0.7,0.8,0.7,1.5c0,0.6-0.3,1.2-0.7,1.4c-0.2,0.1-0.4,0.2-0.7,0.2c0.1,0.1,0.1,0.2,0.2,0.3c0.7,1.2,1.6,2.6,1.6,2.6H10.4z"
		/>
	<path d="M15.9,57.6c-0.1-0.5-0.2-0.7-0.5-0.9c-0.3-0.2-0.8-0.2-1.3-0.2H13v4.8h1.1c0.5,0,1,0,1.3-0.2c0.3-0.1,0.4-0.4,0.5-0.9
		c0-0.2,0.1-0.8,0.1-1.3C16,58.4,16,57.8,15.9,57.6 M16.7,60.3c-0.2,1.5-1.3,1.8-2.6,1.8h-1.9v-6.3h1.9c1.3,0,2.4,0.2,2.6,1.8
		c0,0.2,0.1,0.9,0.1,1.4C16.8,59.4,16.8,60.1,16.7,60.3"/>
	<polygon points="18,62.1 18,55.8 22.1,55.8 22.1,56.5 18.8,56.5 18.8,58.4 21.7,58.4 21.7,59.2 18.8,59.2 18.8,61.3 22.1,61.3 
		22.1,62.1 	"/>
	<polygon points="27.7,62.1 27.7,58 26.2,62.1 25.5,62.1 24,58 24,62.1 23.2,62.1 23.2,55.8 23.9,55.8 25.9,60.9 27.8,55.8 
		28.5,55.8 28.5,62.1 	"/>
	<path d="M4.5,66.7c-0.1-0.5-0.2-0.7-0.5-0.9c-0.3-0.2-0.8-0.2-1.3-0.2H1.5v4.8h1.1c0.5,0,1,0,1.3-0.2c0.3-0.1,0.4-0.4,0.5-0.9
		c0-0.2,0.1-0.8,0.1-1.3C4.6,67.5,4.5,66.9,4.5,66.7 M5.3,69.4c-0.2,1.5-1.3,1.8-2.6,1.8H0.7v-6.3h1.9c1.3,0,2.4,0.2,2.6,1.8
		c0,0.2,0.1,0.9,0.1,1.4C5.4,68.5,5.3,69.2,5.3,69.4"/>
	<path d="M10.2,66.2c-0.3-0.5-0.8-0.7-1.4-0.7c-0.6,0-1.1,0.2-1.4,0.7C7.2,66.6,7,67.1,7,68c0,0.9,0.1,1.3,0.4,1.7
		c0.3,0.5,0.8,0.7,1.4,0.7c0.6,0,1.1-0.2,1.4-0.7c0.3-0.4,0.4-0.9,0.4-1.7C10.6,67.1,10.5,66.6,10.2,66.2 M10.9,70.1
		c-0.5,0.7-1.2,1.1-2.1,1.1c-0.9,0-1.6-0.4-2.1-1.1c-0.4-0.6-0.5-1.2-0.5-2.2c0-1,0.1-1.6,0.5-2.2c0.5-0.7,1.2-1.1,2.1-1.1
		c0.9,0,1.6,0.4,2.1,1.1c0.4,0.6,0.5,1.2,0.5,2.2C11.4,68.9,11.2,69.6,10.9,70.1"/>
	<path d="M16.7,70.3c-0.4,0.7-1.2,1-2,1c-1.2,0-2.3-0.5-2.5-2l0.8-0.1c0.1,0.6,0.3,0.9,0.8,1.1c0.3,0.1,0.6,0.2,1,0.2
		c0.5,0,1.1-0.2,1.3-0.6c0.1-0.2,0.2-0.4,0.2-0.6c0-0.4-0.2-0.7-0.6-0.9c-0.1-0.1-0.4-0.2-1.2-0.3c-1-0.2-1.3-0.4-1.5-0.6
		c-0.3-0.3-0.5-0.7-0.5-1.1c0-0.5,0.2-0.9,0.6-1.2c0.4-0.3,0.9-0.4,1.5-0.4c0.9,0,1.7,0.3,2.1,1.1c0.1,0.1,0.1,0.1,0.2,0.4l-0.7,0.3
		c-0.2-0.4-0.3-0.6-0.6-0.8c-0.2-0.1-0.5-0.2-1-0.2c-0.5,0-0.8,0.1-1,0.2c-0.2,0.2-0.3,0.4-0.3,0.6c0,0.2,0.1,0.4,0.3,0.6
		c0.2,0.2,0.8,0.3,1.1,0.4c0.6,0.2,1.1,0.3,1.3,0.4c0.6,0.3,1,0.8,1,1.6C17,69.7,16.9,70,16.7,70.3"/>
	<path d="M4.1,74.8c-0.2-0.2-0.6-0.2-1-0.2H1.5v2.1h1.6c0.4,0,0.7,0,1-0.2c0.2-0.1,0.4-0.4,0.4-0.8C4.5,75.3,4.3,75,4.1,74.8
		 M4.5,77.2c-0.4,0.3-1,0.3-1.4,0.3H1.5v2.7H0.7v-6.3h2.4c0.4,0,1,0,1.4,0.3C5,74.5,5.3,75,5.3,75.7C5.3,76.3,5,76.9,4.5,77.2"/>
	<path d="M10.4,79.3c-0.4,0.7-1.2,1-2,1c-1.3,0-2.3-0.5-2.5-2l0.8-0.1c0.1,0.6,0.3,0.9,0.8,1.1c0.3,0.1,0.6,0.2,1,0.2
		c0.5,0,1.1-0.2,1.3-0.6c0.1-0.2,0.2-0.4,0.2-0.6c0-0.4-0.2-0.7-0.6-0.9c-0.1-0.1-0.4-0.2-1.2-0.3c-1-0.2-1.3-0.4-1.5-0.6
		c-0.3-0.3-0.5-0.7-0.5-1.1c0-0.5,0.2-0.9,0.6-1.2c0.4-0.3,0.9-0.4,1.5-0.4c0.9,0,1.7,0.3,2.1,1.1c0,0.1,0.1,0.1,0.2,0.4l-0.7,0.3
		c-0.2-0.4-0.3-0.6-0.6-0.8c-0.2-0.1-0.5-0.2-1-0.2c-0.5,0-0.8,0.1-1,0.2C7.1,75,7,75.2,7,75.5c0,0.2,0.1,0.4,0.3,0.6
		c0.2,0.2,0.8,0.3,1.1,0.4c0.6,0.2,1.1,0.3,1.3,0.4c0.7,0.3,1,0.8,1,1.6C10.7,78.7,10.6,79,10.4,79.3"/>
	<rect x="11.9" y="73.9" width="0.8" height="6.3"/>
	<path d="M17.8,75.4c-0.6-0.7-0.9-0.9-1.5-0.9c-0.6,0-1.1,0.2-1.4,0.7c-0.3,0.4-0.4,0.9-0.4,1.7c0,0.9,0.1,1.3,0.4,1.7
		c0.3,0.5,0.8,0.7,1.4,0.7c0.6,0,0.9-0.2,1.5-0.8l0.6,0.5c-0.7,0.9-1.2,1.1-2.1,1.1c-0.9,0-1.6-0.4-2-1.1c-0.4-0.6-0.5-1.2-0.5-2.2
		c0-1,0.1-1.6,0.5-2.2c0.5-0.7,1.2-1.1,2-1.1c0.8,0,1.3,0.3,2.1,1.1L17.8,75.4z"/>
	<path d="M21.9,73.2h-0.7l0.8-1.3h0.8L21.9,73.2z M23.2,75.3c-0.3-0.5-0.8-0.7-1.4-0.7c-0.6,0-1.1,0.2-1.4,0.7
		c-0.3,0.4-0.4,0.9-0.4,1.7c0,0.9,0.1,1.3,0.4,1.7c0.3,0.5,0.8,0.7,1.4,0.7c0.6,0,1.1-0.2,1.4-0.7c0.3-0.4,0.4-0.9,0.4-1.7
		C23.6,76.2,23.5,75.7,23.2,75.3 M23.9,79.2c-0.5,0.7-1.2,1.1-2.1,1.1c-0.9,0-1.6-0.4-2.1-1.1c-0.4-0.6-0.5-1.2-0.5-2.2
		c0-1,0.1-1.6,0.5-2.2c0.5-0.7,1.2-1.1,2.1-1.1c0.9,0,1.6,0.4,2.1,1.1c0.4,0.6,0.5,1.2,0.5,2.2C24.4,78,24.3,78.6,23.9,79.2"/>
	<polygon points="25.5,80.2 25.5,73.9 26.3,73.9 26.3,79.4 29.2,79.4 29.2,80.2 	"/>
	<path d="M33.5,75.3c-0.3-0.5-0.8-0.7-1.4-0.7c-0.6,0-1.1,0.2-1.4,0.7c-0.3,0.4-0.4,0.9-0.4,1.7c0,0.9,0.1,1.3,0.4,1.7
		c0.3,0.5,0.8,0.7,1.4,0.7c0.6,0,1.1-0.2,1.4-0.7c0.3-0.4,0.4-0.9,0.4-1.7C33.9,76.2,33.8,75.7,33.5,75.3 M34.2,79.2
		c-0.5,0.7-1.2,1.1-2.1,1.1c-0.9,0-1.6-0.4-2.1-1.1c-0.4-0.6-0.5-1.2-0.5-2.2c0-1,0.1-1.6,0.5-2.2c0.5-0.7,1.2-1.1,2.1-1.1
		c0.9,0,1.6,0.4,2.1,1.1c0.4,0.6,0.5,1.2,0.5,2.2C34.7,78,34.6,78.6,34.2,79.2"/>
	<path d="M40.3,80.2h-0.7v-0.7c-0.4,0.5-0.9,0.8-1.5,0.8c-0.9,0-1.5-0.4-2-1.1c-0.4-0.6-0.5-1.2-0.5-2.2c0-1,0.1-1.6,0.5-2.2
		c0.5-0.7,1.2-1.1,2-1.1c0.8,0,1.4,0.3,2.1,1.1l-0.6,0.5c-0.6-0.7-0.9-0.9-1.5-0.9c-0.6,0-1.1,0.2-1.4,0.7c-0.3,0.4-0.4,0.9-0.4,1.7
		c0,0.9,0.1,1.3,0.4,1.7c0.3,0.5,0.8,0.7,1.3,0.7c0.4,0,0.8-0.2,1.1-0.7c0.2-0.4,0.3-0.8,0.3-1.3h-1.6v-0.8h2.4L40.3,80.2z"/>
	<path d="M45.2,75.3c-0.3-0.5-0.8-0.7-1.4-0.7c-0.6,0-1.1,0.2-1.4,0.7c-0.3,0.4-0.4,0.9-0.4,1.7c0,0.9,0.1,1.3,0.4,1.7
		c0.3,0.5,0.8,0.7,1.4,0.7c0.6,0,1.1-0.2,1.4-0.7c0.3-0.4,0.4-0.9,0.4-1.7C45.6,76.2,45.5,75.7,45.2,75.3 M45.9,79.2
		c-0.5,0.7-1.2,1.1-2.1,1.1c-0.9,0-1.6-0.4-2.1-1.1c-0.4-0.6-0.5-1.2-0.5-2.2c0-1,0.1-1.6,0.5-2.2c0.5-0.7,1.2-1.1,2.1-1.1
		c0.9,0,1.6,0.4,2.1,1.1c0.4,0.6,0.5,1.2,0.5,2.2C46.4,78,46.3,78.6,45.9,79.2"/>
	<path d="M51.7,79.3c-0.4,0.7-1.2,1-2,1c-1.3,0-2.3-0.5-2.5-2l0.8-0.1c0.1,0.6,0.3,0.9,0.8,1.1c0.3,0.1,0.6,0.2,1,0.2
		c0.5,0,1.1-0.2,1.3-0.6c0.1-0.2,0.2-0.4,0.2-0.6c0-0.4-0.2-0.7-0.6-0.9c-0.1-0.1-0.4-0.2-1.2-0.3c-1-0.2-1.3-0.4-1.5-0.6
		c-0.3-0.3-0.5-0.7-0.5-1.1c0-0.5,0.2-0.9,0.6-1.2c0.4-0.3,0.9-0.4,1.5-0.4c0.9,0,1.7,0.3,2.1,1.1c0,0.1,0.1,0.1,0.2,0.4l-0.7,0.3
		c-0.2-0.4-0.3-0.6-0.6-0.8c-0.2-0.1-0.5-0.2-1-0.2c-0.5,0-0.8,0.1-1,0.2c-0.2,0.2-0.3,0.4-0.3,0.6c0,0.2,0.1,0.4,0.3,0.6
		c0.2,0.2,0.8,0.3,1.1,0.4c0.6,0.2,1.1,0.3,1.3,0.4c0.7,0.3,1.1,0.8,1.1,1.6C52,78.7,51.9,79,51.7,79.3"/>
	<path class="st1" d="M0.5,49.6c0,1,0.8,1.8,1.8,1.8h18c1,0,1.8-0.8,1.8-1.8v-11c0-1-0.6-2.4-1.3-3.1L1.8,16.4
		C1.1,15.7,0.5,16,0.5,17V49.6z M30.3,49.6c0,1,0.8,1.8,1.8,1.8h18.1c1,0,1.8-0.8,1.8-1.8v-24c0-1-0.6-1.2-1.3-0.5L31.6,44.1
		c-0.7,0.7-1.3,2.1-1.3,3.1V49.6z M0.5,1.9c0,1,0.6,2.4,1.3,3.1l19.1,19.1c0.7,0.7,1.3,0.5,1.3-0.5V1.8c0-1-0.8-1.8-1.8-1.8h-18
		c-1,0-1.8,0.8-1.8,1.8V1.9z M32.1,0c-1,0-1.8,0.8-1.8,1.8v30.4c0,1,0.6,1.2,1.3,0.5l19.1-19.1c0.7-0.7,1.3-2.1,1.3-3.1V1.8
		c0-1-0.8-1.8-1.8-1.8H32.1z"/>
</g>
</svg>
