<?xml version="1.0" encoding="utf-8"?>
<!-- Generator: Adobe Illustrator 21.0.0, SVG Export Plug-In . SVG Version: 6.00 Build 0)  -->
<!DOCTYPE svg PUBLIC "-//W3C//DTD SVG 1.1//EN" "http://www.w3.org/Graphics/SVG/1.1/DTD/svg11.dtd">
<svg version="1.1" id="Layer_1" xmlns="http://www.w3.org/2000/svg" xmlns:xlink="http://www.w3.org/1999/xlink" x="0px" y="0px"
	 viewBox="0 0 323 111" style="enable-background:new 0 0 323 111;" xml:space="preserve">
<style type="text/css">
	.st0{fill:#231F20;}
	.st1{fill:#F58532;}
	.st2{fill:#5F6262;}
	.st3{fill:#FFFFFF;}
</style>
<g>
	<g>
		<g>
			<path class="st0" d="M179.8,108.3V76.4c0-1.1,0.9-2.1,2-2.1h22.4c1,0,1.9,0.8,1.9,1.9c0,1-0.8,1.9-1.9,1.9h-20.3v12.3h18
				c1,0,1.9,0.9,1.9,1.9c0,1-0.8,1.9-1.9,1.9h-18v12.6h20.6c1,0,1.9,0.8,1.9,1.8c0,1-0.8,1.9-1.9,1.9h-22.7
				C180.7,110.4,179.8,109.5,179.8,108.3z"/>
		</g>
		<g>
			<path class="st0" d="M295.5,108.3V76.4c0-1.1,0.9-2.1,2-2.1h22.4c1,0,1.9,0.8,1.9,1.9c0,1-0.8,1.9-1.9,1.9h-20.3v12.3h18
				c1,0,1.9,0.9,1.9,1.9c0,1-0.8,1.9-1.9,1.9h-18v12.6h20.6c1,0,1.9,0.8,1.9,1.8c0,1-0.8,1.9-1.9,1.9h-22.7
				C296.4,110.4,295.5,109.5,295.5,108.3z"/>
		</g>
		<g>
			<path class="st1" d="M269.3,76.1c0-1.1,0.9-2.1,2-2.1c1.1,0,2.1,0.9,2.1,2.1v32.5c0,1.1-0.9,2.1-2.1,2.1c-1.1,0-2-0.9-2-2.1V76.1
				z"/>
			<path class="st1" d="M287.6,90.3c1.1,0,2.1,0.9,2.1,2c0,1.1-0.9,2.1-2.1,2.1h-32.5c-1.1,0-2.1-0.9-2.1-2.1c0-1.1,0.9-2,2.1-2
				H287.6z"/>
		</g>
		<path class="st0" d="M135.3,76.2c0-1.1,0.9-2,2-2h0.5c0.9,0,1.5,0.5,1.9,1.1l12.9,19.4l12.9-19.4c0.4-0.7,1.1-1.1,1.9-1.1h0.5
			c1.1,0,2,0.9,2,2v32.4c0,1.1-0.9,2.1-2,2.1c-1.1,0-2.1-1-2.1-2.1V81.7l-11.6,17c-0.5,0.7-1,1-1.7,1c-0.7,0-1.3-0.4-1.7-1
			l-11.5-16.9v26.9c0,1.1-0.9,2-2,2c-1.1,0-2-0.9-2-2V76.2z"/>
		<path class="st0" d="M215.5,76.2c0-1.1,0.9-2,2-2h0.6c0.9,0,1.5,0.5,2.1,1.2l21.9,27.9V76.1c0-1.1,0.9-2,2-2c1.1,0,2,0.9,2,2v32.6
			c0,1.1-0.8,1.9-1.9,1.9h-0.2c-0.9,0-1.5-0.5-2.1-1.2l-22.4-28.6v28c0,1.1-0.9,2-2,2c-1.1,0-2-0.9-2-2V76.2z"/>
		<path class="st1" d="M88.1,63.2L88.1,63.2c-13.5,0-17.4-15-17.5-15.4c-0.3-0.9,0.1-2.7,1.2-3c1.3-0.3,2.5,0.6,2.8,1.6
			c0.1,0.3,3.3,12.6,13,13c0,0,0.1,0,0.5,0c11.6,0.2,14-12.8,14.1-13.1c0.3-0.9,1.4-2,2.7-1.7c1.3,0.3,1.7,1.9,1.4,2.9
			C106.2,47.8,102.4,63.2,88.1,63.2z"/>
		<path class="st0" d="M1.2,58.9c-0.5-0.3-0.8-0.9-0.8-1.5c0-1.1,0.9-2,1.9-2c0.5,0,1,0.2,1.2,0.5c3.4,2.9,6.8,4.3,11.3,4.3
			c4.8,0,8-2.6,8-6.1v-0.1c0-3.3-1.8-5.2-9.3-6.8c-8.3-1.8-12-4.5-12-10.4v-0.1c0-5.6,5-9.8,11.8-9.8c4.7,0,8.2,1.2,11.4,3.5
			c0.4,0.3,0.9,0.9,0.9,1.6c0,1.1-0.9,1.9-1.9,1.9c-0.5,0-0.8-0.1-1.2-0.4c-3-2.2-5.9-3.1-9.3-3.1c-4.7,0-7.6,2.6-7.6,5.8v0.1
			c0,3.4,1.8,5.3,9.7,7c8,1.8,11.7,4.7,11.7,10.2v0.1c0,6.1-5.1,10.1-12.3,10.1C9.6,63.7,5.2,62.1,1.2,58.9z"/>
		<path class="st0" d="M32.5,60.5l14.6-31.8c0.5-1.1,1.3-1.8,2.6-1.8h0.2c1.2,0,2,0.7,2.5,1.8l14.6,31.8c0.2,0.4,0.3,0.7,0.3,1
			c0,1.1-0.9,1.9-1.9,1.9c-1,0-1.6-0.7-2-1.5l-3.7-8.2H39.8L36,62.1c-0.4,0.9-1,1.4-1.9,1.4c-1,0-1.8-0.8-1.8-1.8
			C32.2,61.3,32.3,60.9,32.5,60.5z M57.9,50l-8.3-18.4L41.4,50H57.9z"/>
		<path class="st0" d="M114.6,29.3c0-1.1,0.9-2.1,2-2.1H127c11.3,0,19.1,7.7,19.1,17.8v0.1c0,10.1-7.8,17.9-19.1,17.9h-10.5
			c-1.1,0-2-0.9-2-2.1V29.3z M127,59.4c9.1,0,14.9-6.2,14.9-14.1v-0.1c0-7.9-5.8-14.2-14.9-14.2h-8.4v28.4H127z"/>
		<path class="st0" d="M150.4,60.5l14.6-31.8c0.5-1.1,1.3-1.8,2.6-1.8h0.2c1.2,0,2.1,0.7,2.5,1.8l14.6,31.8c0.2,0.4,0.3,0.7,0.3,1
			c0,1.1-0.9,1.9-1.9,1.9c-1,0-1.6-0.7-2-1.5l-3.7-8.2h-19.7l-3.7,8.4c-0.4,0.9-1,1.4-1.9,1.4c-1,0-1.8-0.8-1.8-1.8
			C150.1,61.3,150.2,60.9,150.4,60.5z M175.7,50l-8.3-18.4L159.2,50H175.7z"/>
		<path class="st0" d="M200.6,61.9L186.7,30c-0.2-0.3-0.2-0.6-0.2-0.9c0-1,0.9-2,2-2c1,0,1.7,0.7,2.1,1.5l12.4,29.7l12.5-29.8
			c0.4-0.7,1.1-1.4,2-1.4c1.1,0,2,0.9,2,1.9c0,0.3-0.1,0.6-0.2,0.8l-13.9,32.1c-0.5,1-1.2,1.7-2.4,1.7h-0.2
			C201.8,63.6,201,62.9,200.6,61.9z"/>
		<path class="st0" d="M227.2,61.1V29.3c0-1.1,0.9-2.1,2-2.1h22.3c1,0,1.8,0.8,1.8,1.8c0,1-0.8,1.8-1.8,1.8h-20.3v12.2h17.9
			c1,0,1.8,0.9,1.8,1.8c0,1-0.8,1.8-1.8,1.8h-17.9v12.6h20.5c1,0,1.8,0.8,1.8,1.8c0,1-0.8,1.8-1.8,1.8h-22.6
			C228.1,63.2,227.2,62.3,227.2,61.1z"/>
		<path class="st0" d="M261.5,29.1c0-1.1,0.9-2.1,2-2.1c1.1,0,2.1,0.9,2.1,2.1v30.3h18.6c1,0,1.8,0.9,1.8,1.9c0,1-0.8,1.8-1.8,1.8
			h-20.7c-1.1,0-2-0.9-2-2.1V29.1z"/>
		<g>
			<path class="st0" d="M1.7,11V1.6C1.7,1.3,2,1,2.3,1h6.6c0.3,0,0.5,0.2,0.5,0.5c0,0.3-0.2,0.5-0.5,0.5h-6v3.6h5.3
				c0.3,0,0.5,0.3,0.5,0.5c0,0.3-0.2,0.5-0.5,0.5H2.9v3.7h6c0.3,0,0.5,0.2,0.5,0.5c0,0.3-0.2,0.5-0.5,0.5H2.3
				C2,11.6,1.7,11.3,1.7,11z"/>
			<path class="st0" d="M20.5,10.3c-0.1-0.1-0.2-0.3-0.2-0.5c0-0.3,0.3-0.6,0.6-0.6c0.2,0,0.3,0.1,0.4,0.1c1,0.8,2,1.3,3.3,1.3
				c1.4,0,2.4-0.8,2.4-1.8v0c0-1-0.5-1.5-2.7-2c-2.4-0.5-3.6-1.3-3.6-3.1v0c0-1.7,1.5-2.9,3.5-2.9c1.4,0,2.4,0.3,3.4,1
				c0.1,0.1,0.3,0.3,0.3,0.5c0,0.3-0.3,0.6-0.6,0.6c-0.1,0-0.2,0-0.3-0.1C25.9,2.2,25.1,2,24.1,2c-1.4,0-2.3,0.8-2.3,1.7v0
				c0,1,0.5,1.6,2.9,2.1c2.4,0.5,3.4,1.4,3.4,3v0c0,1.8-1.5,3-3.6,3C23,11.8,21.7,11.3,20.5,10.3z"/>
			<path class="st0" d="M39.2,6.4L39.2,6.4c0-3,2.2-5.5,5.3-5.5c1.7,0,2.8,0.6,3.8,1.4c0.1,0.1,0.2,0.3,0.2,0.5
				c0,0.3-0.3,0.6-0.6,0.6c-0.2,0-0.3-0.1-0.4-0.1c-0.8-0.7-1.7-1.2-3-1.2c-2.3,0-4.1,1.9-4.1,4.3v0c0,2.4,1.8,4.4,4.1,4.4
				c1.3,0,2.2-0.5,3.1-1.3c0.1-0.1,0.2-0.2,0.4-0.2c0.3,0,0.6,0.3,0.6,0.6c0,0.2-0.1,0.3-0.2,0.4c-1,1-2.2,1.6-3.9,1.6
				C41.4,11.8,39.2,9.4,39.2,6.4z"/>
			<path class="st0" d="M59.1,6.4L59.1,6.4c0-2.9,2.2-5.5,5.4-5.5s5.4,2.5,5.4,5.4v0c0,2.9-2.2,5.5-5.4,5.5
				C61.2,11.8,59.1,9.3,59.1,6.4z M68.6,6.4L68.6,6.4c0-2.4-1.8-4.4-4.2-4.4s-4.1,1.9-4.1,4.3v0c0,2.4,1.8,4.4,4.2,4.4
				S68.6,8.8,68.6,6.4z"/>
			<path class="st0" d="M81.4,1.6C81.4,1.2,81.7,1,82,1c0.3,0,0.6,0.3,0.6,0.6v8.9h5.5c0.3,0,0.5,0.3,0.5,0.6c0,0.3-0.2,0.5-0.5,0.5
				H82c-0.3,0-0.6-0.3-0.6-0.6V1.6z"/>
			<path class="st0" d="M99.2,10.8l4.3-9.4c0.2-0.3,0.4-0.5,0.8-0.5h0.1c0.4,0,0.6,0.2,0.7,0.5l4.3,9.4c0,0.1,0.1,0.2,0.1,0.3
				c0,0.3-0.3,0.6-0.6,0.6c-0.3,0-0.5-0.2-0.6-0.4l-1.1-2.4h-5.8l-1.1,2.5c-0.1,0.3-0.3,0.4-0.6,0.4c-0.3,0-0.5-0.2-0.5-0.5
				C99.1,11,99.1,10.9,99.2,10.8z M106.7,7.7l-2.4-5.4l-2.4,5.4H106.7z"/>
		</g>
		<g>
			<circle class="st1" cx="79.2" cy="29.8" r="2.5"/>
			<circle class="st1" cx="97.7" cy="29.8" r="2.5"/>
		</g>
	</g>
	<path class="st0" d="M174.9,34.6c-0.1-0.2,0-0.6,0.1-0.8l1.9-5.3c0.3-0.9,0.8-1.4,1.5-1.6c1.2-0.3,2.9,0.1,3.1,0.8
		c0.1,0.4-0.1,0.8-0.4,1.3l-2.9,4.5c-0.6,1-1.2,1.3-2.1,1.5C175.5,35.2,175,35,174.9,34.6z"/>
</g>
</svg>
