<?xml version="1.0"?>
<!--Icons from directory ""-->
<svg xmlns="http://www.w3.org/2000/svg" width="41" height="246" viewBox="0 0 41 246"><svg xmlns:xlink="http://www.w3.org/1999/xlink" id="email_off" style="enable-background:new 0 0 22 22" xml:space="preserve" viewBox="0 0 22 22" version="1.1" y="0" x="0px" width="41" height="41"><style type="text/css">	.st0{fill:#231F20;}	.st1{fill:#F58532;}	.st2{fill:#5F6262;}	.st3{fill:#FFFFFF;}</style>	<circle cy="11" cx="11" r="11" class="st2"/>		<polygon points="15.2 14.2 6.8 14.2 6.8 9.2 11 11.4 15.2 9.2" class="st3"/>		<polygon points="15.2 7.8 6.8 7.8 6.8 8.4 11 10.6 15.2 8.4" class="st3"/></svg><svg xmlns:xlink="http://www.w3.org/1999/xlink" id="email_on" style="enable-background:new 0 0 22 22" xml:space="preserve" viewBox="0 0 22 22" version="1.1" y="41" x="0px" width="41" height="41"><style type="text/css">	.st0{fill:#231F20;}	.st1{fill:#F58532;}	.st2{fill:#5F6262;}	.st3{fill:#FFFFFF;}</style>	<circle cy="11" cx="11" r="11" class="st1"/>		<polygon points="15.2 14.2 6.8 14.2 6.8 9.2 11 11.4 15.2 9.2" class="st3"/>		<polygon points="15.2 7.8 6.8 7.8 6.8 8.4 11 10.6 15.2 8.4" class="st3"/></svg><svg xmlns:xlink="http://www.w3.org/1999/xlink" id="facebook_off" style="enable-background:new 0 0 22 22" xml:space="preserve" viewBox="0 0 22 22" version="1.1" y="82" x="0px" width="41" height="41"><style type="text/css">	.st0{fill:#231F20;}	.st1{fill:#F58532;}	.st2{fill:#5F6262;}	.st3{fill:#FFFFFF;}</style>	<circle cy="11" cx="11" r="11" class="st2"/>	<path class="st3" d="m14.2 7.2h-1.5c-0.5 0-0.8 0.4-0.8 0.9v0.9h2.3v1.9h-2.3v6.1h-2.2v-6.1h-1.9v-1.9h1.8v-1.8c0-1.1 1.1-2.1 2-2.1h2.5v2.1z"/></svg><svg xmlns:xlink="http://www.w3.org/1999/xlink" id="faqcebook_on" style="enable-background:new 0 0 40 40" xml:space="preserve" viewBox="0 0 40 40" version="1.1" y="123" x="0px" width="41" height="41"><style type="text/css">	.st0{fill:#231F20;}	.st1{fill:#F58532;}	.st2{fill:#5F6262;}	.st3{fill:#FFFFFF;}</style>	<circle cy="20" cx="20" r="20" class="st1"/>	<path class="st3" d="m25.8 13h-2.7c-0.9 0-1.4 0.8-1.4 1.7v1.6h4.1v3.4h-4.1v11h-4.1v-11h-3.4v-3.4h3.4v-3.3c0-2.1 2-3.8 3.6-3.8h4.6v3.8z"/></svg><svg xmlns:xlink="http://www.w3.org/1999/xlink" id="twitter_off" style="enable-background:new 0 0 40 40" xml:space="preserve" viewBox="0 0 40 40" version="1.1" y="164" x="0px" width="41" height="41"><style type="text/css">	.st0{fill:#231F20;}	.st1{fill:#F58532;}	.st2{fill:#5F6262;}	.st3{fill:#FFFFFF;}</style>	<circle cy="20" cx="20" r="20" class="st2"/>	<path class="st3" d="m32 14c-0.8 0.3-1.6 0.6-2.5 0.7 0.9-0.5 1.6-1.4 1.9-2.4-0.8 0.5-1.8 0.9-2.8 1.1-0.8-0.9-1.9-1.4-3.2-1.4-2.4 0-4.4 2-4.4 4.4 0 0.3 0 0.7 0.1 1-3.6-0.2-6.9-1.9-9-4.6-0.4 0.6-0.6 1.4-0.6 2.2 0 1.5 0.8 2.9 1.9 3.6-0.7 0-1.4-0.2-2-0.5v0.1c0 2.1 1.5 3.9 3.5 4.3-0.4 0.1-0.8 0.2-1.2 0.2-0.3 0-0.6 0-0.8-0.1 0.6 1.7 2.2 3 4.1 3-1.5 1.2-3.4 1.9-5.4 1.9-0.4 0-0.7 0-1-0.1 1.9 1.2 4.2 2 6.7 2 8.1 0 12.5-6.7 12.5-12.5v-0.6c0.9-0.7 1.6-1.5 2.2-2.3z"/></svg><svg xmlns:xlink="http://www.w3.org/1999/xlink" id="twitter_on" style="enable-background:new 0 0 40 40" xml:space="preserve" viewBox="0 0 40 40" version="1.1" y="205" x="0px" width="41" height="41"><style type="text/css">	.st0{fill:#231F20;}	.st1{fill:#F58532;}	.st2{fill:#5F6262;}	.st3{fill:#FFFFFF;}</style>	<circle cy="20" cx="20" r="20" class="st1"/>	<path class="st3" d="m32 14c-0.8 0.3-1.6 0.6-2.5 0.7 0.9-0.5 1.6-1.4 1.9-2.4-0.8 0.5-1.8 0.9-2.8 1.1-0.8-0.9-1.9-1.4-3.2-1.4-2.4 0-4.4 2-4.4 4.4 0 0.3 0 0.7 0.1 1-3.6-0.2-6.9-1.9-9-4.6-0.4 0.6-0.6 1.4-0.6 2.2 0 1.5 0.8 2.9 1.9 3.6-0.7 0-1.4-0.2-2-0.5v0.1c0 2.1 1.5 3.9 3.5 4.3-0.4 0.1-0.8 0.2-1.2 0.2-0.3 0-0.6 0-0.8-0.1 0.6 1.7 2.2 3 4.1 3-1.5 1.2-3.4 1.9-5.4 1.9-0.4 0-0.7 0-1-0.1 1.9 1.2 4.2 2 6.7 2 8.1 0 12.5-6.7 12.5-12.5v-0.6c0.9-0.7 1.6-1.5 2.2-2.3z"/></svg></svg>
