<?xml version="1.0"?>
<!--Icons from directory ""-->
<svg xmlns="http://www.w3.org/2000/svg" width="41" height="164" viewBox="0 0 41 164"><svg xmlns:xlink="http://www.w3.org/1999/xlink" id="icones-svg-01" style="enable-background:new 0 0 45 45" xml:space="preserve" viewBox="0 0 45 45" version="1.1" y="0" x="0px" width="41" height="41"><style type="text/css">	.st0{fill:#F58532;}	.st1{fill:#FFFFFF;}	.st2{fill:#5F6262;}</style>	<circle cy="22.5" cx="22.5" r="22.5" class="st0"/>		<path class="st1" d="m23.6 21.2z"/>		<path class="st1" d="m17.6 31.1h-3.8v-11.6h3.8v11.6zm-1.9-13.2c-1.3 0-2.2-0.9-2.2-2s0.9-2 2.2-2 2.1 0.9 2.2 2c0 1.1-0.9 2-2.2 2zm15.8 13.2h-3.8v-6.2c0-1.6-0.6-2.6-1.9-2.6-1.1 0-1.7 0.7-2 1.4-0.1 0.2-0.1 0.6-0.1 0.9v6.5h-3.8s0.1-10.5 0-11.6h3.8v1.6c0.5-0.8 1.4-1.9 3.5-1.9 2.5 0 4.4 1.7 4.4 5.2v6.7z"/></svg><svg xmlns:xlink="http://www.w3.org/1999/xlink" id="icones-svg-02" style="enable-background:new 0 0 45 45" xml:space="preserve" viewBox="0 0 45 45" version="1.1" y="41" x="0px" width="41" height="41"><style type="text/css">	.st0{fill:#F58532;}	.st1{fill:#FFFFFF;}	.st2{fill:#5F6262;}</style>	<circle cy="22.5" cx="22.5" r="22.5" class="st2"/>		<path class="st1" d="m23.6 21.2z"/>		<path class="st1" d="m17.6 31.1h-3.8v-11.6h3.8v11.6zm-1.9-13.2c-1.3 0-2.2-0.9-2.2-2s0.9-2 2.2-2 2.1 0.9 2.2 2c0 1.1-0.9 2-2.2 2zm15.8 13.2h-3.8v-6.2c0-1.6-0.6-2.6-1.9-2.6-1.1 0-1.7 0.7-2 1.4-0.1 0.2-0.1 0.6-0.1 0.9v6.5h-3.8s0.1-10.5 0-11.6h3.8v1.6c0.5-0.8 1.4-1.9 3.5-1.9 2.5 0 4.4 1.7 4.4 5.2v6.7z"/></svg><svg xmlns:xlink="http://www.w3.org/1999/xlink" id="icones-svg-03" style="enable-background:new 0 0 45 45" xml:space="preserve" viewBox="0 0 45 45" version="1.1" y="82" x="0px" width="41" height="41"><style type="text/css">	.st0{fill:#F58532;}	.st1{fill:#FFFFFF;}	.st2{fill:#5F6262;}</style><circle cy="22.5" cx="22.5" r="22.5" class="st0"/>	<path class="st1" d="m27.5 11h-10c-3.5 0-6.4 2.9-6.4 6.4v10.1c0 3.5 2.9 6.4 6.4 6.4h10c3.5 0 6.4-2.9 6.4-6.4v-10c0.1-3.6-2.8-6.5-6.4-6.5zm4.5 16.4c0 2.5-2.1 4.6-4.6 4.6h-9.8c-2.5 0-4.6-2.1-4.6-4.6v-9.8c0-2.5 2.1-4.6 4.6-4.6h9.8c2.5 0 4.6 2.1 4.6 4.6v9.8z"/>	<path class="st1" d="m22.5 16.7c-3.2 0-5.9 2.6-5.9 5.9 0 3.2 2.6 5.9 5.9 5.9s5.9-2.6 5.9-5.9c-0.1-3.3-2.7-5.9-5.9-5.9zm0 9.6c-2.1 0-3.7-1.7-3.7-3.7s1.7-3.7 3.7-3.7 3.7 1.7 3.7 3.7-1.7 3.7-3.7 3.7z"/>	<circle cy="16.4" cx="28.7" r="1.4" class="st1"/></svg><svg xmlns:xlink="http://www.w3.org/1999/xlink" id="icones-svg-04" style="enable-background:new 0 0 45 45" xml:space="preserve" viewBox="0 0 45 45" version="1.1" y="123" x="0px" width="41" height="41"><style type="text/css">	.st0{fill:#F58532;}	.st1{fill:#FFFFFF;}	.st2{fill:#5F6262;}</style><circle cy="22.5" cx="22.5" r="22.5" class="st2"/>	<path class="st1" d="m27.5 11h-10c-3.5 0-6.4 2.9-6.4 6.4v10.1c0 3.5 2.9 6.4 6.4 6.4h10c3.5 0 6.4-2.9 6.4-6.4v-10c0.1-3.6-2.8-6.5-6.4-6.5zm4.5 16.4c0 2.5-2.1 4.6-4.6 4.6h-9.8c-2.5 0-4.6-2.1-4.6-4.6v-9.8c0-2.5 2.1-4.6 4.6-4.6h9.8c2.5 0 4.6 2.1 4.6 4.6v9.8z"/>	<path class="st1" d="m22.5 16.7c-3.2 0-5.9 2.6-5.9 5.9 0 3.2 2.6 5.9 5.9 5.9s5.9-2.6 5.9-5.9c-0.1-3.3-2.7-5.9-5.9-5.9zm0 9.6c-2.1 0-3.7-1.7-3.7-3.7s1.7-3.7 3.7-3.7 3.7 1.7 3.7 3.7-1.7 3.7-3.7 3.7z"/>	<circle cy="16.4" cx="28.7" r="1.4" class="st1"/></svg></svg>
